<svg xmlns="http://www.w3.org/2000/svg" viewBox="0 0 48 48">
  <defs>
    <linearGradient id="bdg" x1="0" x2="1" y1="0" y2="1">
      <stop offset="0" stop-color="#C8511B"/>
      <stop offset="1" stop-color="#F90"/>
    </linearGradient>
  </defs>
  <rect width="48" height="48" rx="4" fill="url(#bdg)"/>
  <path fill="#fff" d="M12 14h7c3.3 0 6 2.2 6 5 0 1.8-1 3.3-2.5 4.1 2 .7 3.5 2.5 3.5 4.6 0 3-2.9 5.3-6.5 5.3H12zm3 3v6h4c1.7 0 3-1.3 3-3s-1.3-3-3-3zm0 9v7h5.5c2 0 3.5-1.5 3.5-3.5S22.5 26 20.5 26zM30 26c0-5.5 3.6-9.5 8.3-9.5h.7v3h-.7c-3 0-5.3 2.8-5.3 6.5s2.3 6.5 5.3 6.5h.7v3h-.7C33.6 35.5 30 31.5 30 26z"/>
</svg>